<?xml version="1.0" encoding="utf-8"?>
<!-- Generator: Adobe Illustrator 21.0.2, SVG Export Plug-In . SVG Version: 6.00 Build 0)  -->
<svg version="1.1" xmlns="http://www.w3.org/2000/svg" xmlns:xlink="http://www.w3.org/1999/xlink" x="0px" y="0px"
	 viewBox="0 0 500 500" style="enable-background:new 0 0 500 500;" xml:space="preserve">
<style type="text/css">
	.st0{display:none;}
	.st1{display:inline;}
	.st2{fill:#344D5E;}
	.st3{fill:#1F3947;}
	.st4{fill:#FFFFFF;}
	.st5{fill:#3A4956;}
	.st6{fill:#A54A9C;}
	.st7{fill:#010101;}
	.st8{display:inline;fill:#FFFFFF;}
	.st9{fill:#A54B9C;}
	.st10{opacity:0.8;fill:#1496D3;}
	.st11{display:none;opacity:0.8;fill:#766228;}
</style>
<g id="Layer_1" class="st0">
	<g class="st1">
		<path class="st2" d="M416.4,0H79.5C67.9,0,58.6,8.6,58.6,19.1v461.3c0,10.6,9.4,19.1,20.9,19.1h336.9c11.6,0,20.9-8.6,20.9-19.1
			V19.1C437.3,8.6,428,0,416.4,0z"/>
		<path class="st3" d="M342.4,421.3h-189c-11.7,0-21.1,8.6-21.1,19.3v59h231.2v-59C363.6,429.9,354.1,421.3,342.4,421.3z"/>
		<path class="st3" d="M342.4,124.7h-189c-11.7,0-21.1,8.6-21.1,19.3v228.5c0,10.7,9.5,19.3,21.1,19.3h189
			c11.7,0,21.1-8.6,21.1-19.3V144C363.6,133.4,354.1,124.7,342.4,124.7z"/>
		<path class="st3" d="M153.5,95.3h189c11.7,0,21.1-8.6,21.1-19.3V0H132.3v76C132.3,86.7,141.8,95.3,153.5,95.3z"/>
		<path class="st4" d="M418.7,16.2h-33c-1.7,0-3.1,1.3-3.1,2.9v32c0,1.6,1.4,2.9,3.1,2.9h33c1.7,0,3.1-1.3,3.1-2.9v-32
			C421.8,17.5,420.4,16.2,418.7,16.2z"/>
		<path class="st4" d="M418.7,70h-33c-1.7,0-3.1,1.3-3.1,2.9v32c0,1.6,1.4,2.9,3.1,2.9h33c1.7,0,3.1-1.3,3.1-2.9v-32
			C421.8,71.3,420.4,70,418.7,70z"/>
		<path class="st4" d="M418.7,123.8h-33c-1.7,0-3.1,1.3-3.1,2.9v32c0,1.6,1.4,2.9,3.1,2.9h33c1.7,0,3.1-1.3,3.1-2.9v-32
			C421.8,125.1,420.4,123.8,418.7,123.8z"/>
		<path class="st4" d="M418.7,177.6h-33c-1.7,0-3.1,1.3-3.1,2.9v32c0,1.6,1.4,2.9,3.1,2.9h33c1.7,0,3.1-1.3,3.1-2.9v-32
			C421.8,178.9,420.4,177.6,418.7,177.6z"/>
		<path class="st4" d="M418.7,231.4h-33c-1.7,0-3.1,1.3-3.1,2.9v32c0,1.6,1.4,2.9,3.1,2.9h33c1.7,0,3.1-1.3,3.1-2.9v-32
			C421.8,232.7,420.4,231.4,418.7,231.4z"/>
		<path class="st4" d="M418.7,285.2h-33c-1.7,0-3.1,1.3-3.1,2.9v32c0,1.6,1.4,2.9,3.1,2.9h33c1.7,0,3.1-1.3,3.1-2.9v-32
			C421.8,286.5,420.4,285.2,418.7,285.2z"/>
		<path class="st4" d="M418.7,339h-33c-1.7,0-3.1,1.3-3.1,2.9v32c0,1.6,1.4,2.9,3.1,2.9h33c1.7,0,3.1-1.3,3.1-2.9v-32
			C421.8,340.3,420.4,339,418.7,339z"/>
		<path class="st4" d="M418.7,392.8h-33c-1.7,0-3.1,1.3-3.1,2.9v32c0,1.6,1.4,2.9,3.1,2.9h33c1.7,0,3.1-1.3,3.1-2.9v-32
			C421.8,394,420.4,392.8,418.7,392.8z"/>
		<path class="st4" d="M418.7,446.5h-33c-1.7,0-3.1,1.3-3.1,2.9v32c0,1.6,1.4,2.9,3.1,2.9h33c1.7,0,3.1-1.3,3.1-2.9v-32
			C421.8,447.8,420.4,446.5,418.7,446.5z"/>
		<path class="st4" d="M110.2,16.2h-33c-1.7,0-3.1,1.3-3.1,2.9v32c0,1.6,1.4,2.9,3.1,2.9h33c1.7,0,3.1-1.3,3.1-2.9v-32
			C113.3,17.5,111.9,16.2,110.2,16.2z"/>
		<path class="st4" d="M110.2,70h-33c-1.7,0-3.1,1.3-3.1,2.9v32c0,1.6,1.4,2.9,3.1,2.9h33c1.7,0,3.1-1.3,3.1-2.9v-32
			C113.3,71.3,111.9,70,110.2,70z"/>
		<path class="st4" d="M110.2,123.8h-33c-1.7,0-3.1,1.3-3.1,2.9v32c0,1.6,1.4,2.9,3.1,2.9h33c1.7,0,3.1-1.3,3.1-2.9v-32
			C113.3,125.1,111.9,123.8,110.2,123.8z"/>
		<path class="st4" d="M110.2,177.6h-33c-1.7,0-3.1,1.3-3.1,2.9v32c0,1.6,1.4,2.9,3.1,2.9h33c1.7,0,3.1-1.3,3.1-2.9v-32
			C113.3,178.9,111.9,177.6,110.2,177.6z"/>
		<path class="st4" d="M110.2,231.4h-33c-1.7,0-3.1,1.3-3.1,2.9v32c0,1.6,1.4,2.9,3.1,2.9h33c1.7,0,3.1-1.3,3.1-2.9v-32
			C113.3,232.7,111.9,231.4,110.2,231.4z"/>
		<path class="st4" d="M110.2,285.2h-33c-1.7,0-3.1,1.3-3.1,2.9v32c0,1.6,1.4,2.9,3.1,2.9h33c1.7,0,3.1-1.3,3.1-2.9v-32
			C113.3,286.5,111.9,285.2,110.2,285.2z"/>
		<path class="st4" d="M110.2,339h-33c-1.7,0-3.1,1.3-3.1,2.9v32c0,1.6,1.4,2.9,3.1,2.9h33c1.7,0,3.1-1.3,3.1-2.9v-32
			C113.3,340.3,111.9,339,110.2,339z"/>
		<path class="st4" d="M110.2,392.8h-33c-1.7,0-3.1,1.3-3.1,2.9v32c0,1.6,1.4,2.9,3.1,2.9h33c1.7,0,3.1-1.3,3.1-2.9v-32
			C113.3,394,111.9,392.8,110.2,392.8z"/>
		<path class="st4" d="M110.2,446.5h-33c-1.7,0-3.1,1.3-3.1,2.9v32c0,1.6,1.4,2.9,3.1,2.9h33c1.7,0,3.1-1.3,3.1-2.9v-32
			C113.3,447.8,111.9,446.5,110.2,446.5z"/>
	</g>
	<g class="st1">
		<path class="st5" d="M116.1,246.6V391c0,4.9,3.9,8.8,8.8,8.8h246.1c4.9,0,8.8-3.9,8.8-8.8V246.6H116.1z"/>
		<g>
			<rect x="116.1" y="206.3" class="st5" width="263.6" height="31.9"/>
			<g>
				<g>
					<polygon class="st4" points="130.2,234.1 136.6,210.3 150,210.3 143.6,234.1 					"/>
				</g>
				<g>
					<polygon class="st4" points="184.1,234.1 190.5,210.3 203.9,210.3 197.5,234.1 					"/>
				</g>
				<g>
					<polygon class="st4" points="238,234.1 244.4,210.3 257.8,210.3 251.4,234.1 					"/>
				</g>
				<g>
					<polygon class="st4" points="291.9,234.1 298.3,210.3 311.7,210.3 305.3,234.1 					"/>
				</g>
				<g>
					<polygon class="st4" points="345.8,234.1 352.2,210.3 365.6,210.3 359.2,234.1 					"/>
				</g>
			</g>
		</g>
		<g>
			<path class="st5" d="M119,177.5l5.7,21.1l254.7-68.2l-5.7-21.1c-1.4-5.3-6.9-8.5-12.3-7.1l-235.3,63.1
				C120.8,166.7,117.6,172.2,119,177.5z"/>
			<g>
				<g>
					<polygon class="st4" points="137.3,166.4 150.2,162.9 150.2,187.7 137.3,191.1 					"/>
				</g>
				<g>
					<polygon class="st4" points="189.4,152.5 202.3,149 202.3,173.7 189.4,177.2 					"/>
				</g>
				<g>
					<polygon class="st4" points="241.4,138.5 254.3,135 254.3,159.8 241.4,163.2 					"/>
				</g>
				<g>
					<polygon class="st4" points="293.5,124.6 306.4,121.1 306.4,145.8 293.5,149.3 					"/>
				</g>
				<g>
					<polygon class="st4" points="345.5,110.6 358.5,107.1 358.5,131.9 345.5,135.3 					"/>
				</g>
			</g>
		</g>
	</g>
</g>
<g id="Layer_2" class="st0">
	<g class="st1">
		<path class="st6" d="M25.9,243.8v243.1c0,8.2,6.6,14.8,14.8,14.8H455c8.2,0,14.8-6.6,14.8-14.8V243.8H25.9z"/>
		<g>
			<rect x="25.9" y="175.8" class="st6" width="443.9" height="53.7"/>
			<g>
				<g>
					<polygon class="st4" points="49.7,222.7 60.5,182.5 83,182.5 72.2,222.7 					"/>
				</g>
				<g>
					<polygon class="st4" points="140.5,222.7 151.2,182.5 173.8,182.5 163,222.7 					"/>
				</g>
				<g>
					<polygon class="st4" points="231.2,222.7 242,182.5 264.5,182.5 253.8,222.7 					"/>
				</g>
				<g>
					<polygon class="st4" points="322,222.7 332.8,182.5 355.3,182.5 344.5,222.7 					"/>
				</g>
				<g>
					<polygon class="st4" points="412.7,222.7 423.5,182.5 446,182.5 435.3,222.7 					"/>
				</g>
			</g>
		</g>
		<g>
			<path class="st6" d="M30.9,127.4l9.5,35.6L469.2,48.1l-9.5-35.6c-2.4-9-11.6-14.3-20.6-11.9L42.8,106.8
				C33.8,109.2,28.5,118.4,30.9,127.4z"/>
			<g>
				<g>
					<polygon class="st4" points="61.7,108.7 83.4,102.8 83.4,144.5 61.7,150.3 					"/>
				</g>
				<g>
					<polygon class="st4" points="149.3,85.2 171.1,79.4 171.1,121 149.3,126.8 					"/>
				</g>
				<g>
					<polygon class="st4" points="237,61.7 258.8,55.9 258.8,97.5 237,103.3 					"/>
				</g>
				<g>
					<polygon class="st4" points="324.7,38.2 346.4,32.4 346.4,74 324.7,79.8 					"/>
				</g>
				<g>
					<polygon class="st4" points="412.3,14.7 434.1,8.9 434.1,50.5 412.3,56.3 					"/>
				</g>
			</g>
		</g>
	</g>
	<path class="st7" d="M160.8,497h-111V55.5C49.7,24.9,74.6,0,105.3,0h289.5c30.6,0,55.5,24.9,55.5,55.5v193
		c0,30.6-24.9,55.5-55.5,55.5h-234V497L160.8,497z M64.3,482.5h82v-193h248.5c22.6,0,41-18.4,41-41v-193c0-22.6-18.4-41-41-41H105.3
		c-22.6,0-41,18.4-41,41V482.5L64.3,482.5z M353.8,207.5H146.2v-111h207.5V207.5L353.8,207.5z M160.8,193h178.5v-82H160.8V193
		L160.8,193z"/>
	<path class="st7" d="M203.7,500h-57.2V272.4c0-15.8,12.8-28.6,28.6-28.6h149.3c15.8,0,28.6,12.8,28.6,28.6v99.5
		c0,15.8-12.8,28.6-28.6,28.6H203.7V500L203.7,500z M153.9,492.5h42.3V393h128.1c11.7,0,21.1-9.5,21.1-21.1v-99.5
		c0-11.7-9.5-21.1-21.1-21.1H175.1c-11.7,0-21.1,9.5-21.1,21.1V492.5L153.9,492.5z M303.2,350.7h-107v-57.2h107V350.7L303.2,350.7z
		 M203.7,343.3h92V301h-92V343.3L203.7,343.3z"/>
	<path class="st8" d="M203.7,500h-57.2V272.4c0-15.8,12.8-28.6,28.6-28.6h149.3c15.8,0,28.6,12.8,28.6,28.6v99.5
		c0,15.8-12.8,28.6-28.6,28.6H203.7V500L203.7,500z M153.9,492.5h42.3V393h128.1c11.7,0,21.1-9.5,21.1-21.1v-99.5
		c0-11.7-9.5-21.1-21.1-21.1H175.1c-11.7,0-21.1,9.5-21.1,21.1V492.5L153.9,492.5z M303.2,350.7h-107v-57.2h107V350.7L303.2,350.7z
		 M203.7,343.3h92V301h-92V343.3L203.7,343.3z"/>
</g>
<g id="Layer_3" class="st0">
</g>
<g id="Layer_4">
	<g>
		<path class="st9" d="M472.1,2.2c3,15.1,9.7,28.3,10.5,44.1c0.9,17.5-3.8,33-8.2,49.7c-7.8,29.4-28.4,48.9-38.8,75.6
			c2.3-1.4,6.4-2.6,8.8-4.9c-1.7,6.3-6.3,11.6-10.1,16.6c2.3-0.3,5.3,0.8,7.5,0.5c-17.3,38.3-45.5,72.5-88.4,81.9
			c14.5,1.1,25.5-1.9,38.7-5.3c0.5-0.5,0.4-0.5-0.1-0.1c-25.7,24.9-50.6,53.7-90,51.5c-10.9-0.6-13.2-1.4-21.3,4.9
			c-5.4,4.3-11,12.3-15.4,17c-14.4,15.2-25.1,24.3-46.9,23.7c19.5-10.2,67.8-68.5,82.3-80.6c56.2-42.1,127.8-147,140-172.5
			c-12.3,11.2-21.2,28.2-30.7,41.7c-17.5,24.8-35.3,49.5-54.7,72.8c-17.2,20.6-36.5,43.7-60.4,57c-35.4,19.7-16.3-52.7-9-67.7
			c11.2-22.9,33.2-42.5,51.4-60.7c0.8,11-3.9,20.9-2.8,31.8c2.7-10.4,6.7-21.5,8.1-32.1c12-5.3,18.7-16.8,28.2-25.4
			c10.1-9.2,20.5-17,29.2-28c-0.5,3.2,0.5,6.8,0.2,9.9c8.9-6.5,16.5-18.5,25.6-26.4C444.7,61.1,478,31.5,472.1,2.2z"/>
		<path class="st9" d="M82.8,128.6c0,0,5,194.5,128,271l196.2-59.9l-36.6-39.9l15-13.3l74.8,61.5l-257.7,84.8
			c0,0-163-124.7-144.7-330.9h262.7c0,0-3.3,26.6,5,41.6l-20,16.6c0,0-15-16.6-10-34.9L82.8,128.6z"/>
		<path class="st9" d="M31.3,163.6c0,0,13.3,191.2,156.3,296L422,391.4l20,13.3l-257.7,93.1c0,0-166.3-121.4-171.3-332.6L31.3,163.6
			z"/>
	</g>
</g>
<g id="Layer_5">
	<path class="st10" d="M162.4,493H53.9V61.3C53.9,31.3,78.2,7,108.2,7h283.1c29.9,0,54.3,24.3,54.3,54.3V250
		c0,29.9-24.3,54.3-54.3,54.3H162.4V493L162.4,493z M68.1,478.8h80.2V290.1h243c22.1,0,40.1-18,40.1-40.1V61.3
		c0-22.1-18-40.1-40.1-40.1H108.2c-22.1,0-40.1,18-40.1,40.1V478.8L68.1,478.8z M351.2,209.9H148.2V101.4h202.9V209.9L351.2,209.9z
		 M162.4,195.7H337v-80.2H162.4V195.7L162.4,195.7z"/>
	<path class="st11" d="M162.4,493H53.9V61.3C53.9,31.3,78.2,7,108.2,7h283.1c29.9,0,54.3,24.3,54.3,54.3V250
		c0,29.9-24.3,54.3-54.3,54.3H162.4V493L162.4,493z M68.1,478.8h80.2V290.1h243c22.1,0,40.1-18,40.1-40.1V61.3
		c0-22.1-18-40.1-40.1-40.1H108.2c-22.1,0-40.1,18-40.1,40.1V478.8L68.1,478.8z M351.2,209.9H148.2V101.4h202.9V209.9L351.2,209.9z
		 M162.4,195.7H337v-80.2H162.4V195.7L162.4,195.7z"/>
</g>
</svg>
